<?xml version="1.0" standalone="no"?>
<!DOCTYPE svg PUBLIC "-//W3C//DTD SVG 20010904//EN"
 "http://www.w3.org/TR/2001/REC-SVG-20010904/DTD/svg10.dtd">
<svg version="1.0" xmlns="http://www.w3.org/2000/svg"
 width="1392.000000pt" height="1392.000000pt" viewBox="0 0 1392.000000 1392.000000"
 preserveAspectRatio="xMidYMid meet">
<metadata>
Created by potrace 1.11, written by Peter Selinger 2001-2013
</metadata>
<g transform="translate(0.000000,1392.000000) scale(0.100000,-0.100000)"
fill="#000000" stroke="none">
<path d="M6275 12784 c-505 -80 -947 -252 -1258 -488 -56 -43 -128 -85 -189
-112 -715 -317 -1346 -810 -1978 -1544 -36 -41 -67 -77 -70 -80 -3 -3 -58 -66
-123 -142 -197 -229 -386 -387 -622 -518 -170 -95 -299 -195 -448 -347 -145
-148 -177 -202 -177 -296 0 -143 141 -320 386 -483 66 -45 129 -86 138 -91 18
-10 17 -16 -17 -119 -46 -142 -58 -195 -65 -302 l-7 -89 -100 -80 c-356 -287
-576 -645 -652 -1063 -24 -132 -23 -409 1 -545 85 -475 375 -888 837 -1192
110 -72 265 -156 278 -151 5 2 103 131 219 288 l209 285 -34 53 c-94 148 -190
378 -229 547 -10 44 -19 81 -20 83 -1 2 -174 30 -384 62 -249 38 -390 64 -406
75 -14 9 -34 30 -45 48 -18 29 -19 47 -17 189 l3 158 36 36 36 36 384 59 c211
32 386 62 389 67 4 4 13 33 19 66 33 153 123 375 212 522 l55 91 -194 264
c-107 145 -212 291 -233 323 -41 62 -49 107 -28 149 16 32 189 206 221 223 32
17 91 18 120 3 12 -6 156 -110 320 -230 164 -121 301 -219 305 -219 3 0 34 17
67 39 142 89 330 169 512 216 54 14 99 27 102 29 2 2 30 172 62 378 32 205 63
385 71 401 26 57 60 67 230 67 165 0 189 -6 225 -58 9 -13 38 -173 74 -403 33
-210 62 -384 63 -386 2 -1 47 -14 101 -28 180 -47 360 -122 511 -215 36 -22
68 -40 71 -40 2 0 139 98 302 218 163 120 307 224 319 230 12 7 43 12 69 12
46 0 49 -2 151 -102 121 -119 137 -144 130 -204 -4 -36 -36 -86 -227 -345
-122 -166 -224 -308 -227 -315 -3 -7 18 -52 47 -98 92 -153 177 -365 210 -521
7 -33 16 -63 20 -67 3 -5 177 -34 386 -67 258 -40 389 -64 407 -75 47 -32 57
-70 57 -228 0 -156 -9 -187 -64 -223 -16 -11 -154 -36 -398 -74 -206 -31 -379
-60 -385 -64 -6 -4 -14 -26 -18 -50 -21 -127 -116 -370 -209 -529 -31 -54 -56
-101 -56 -104 0 -3 96 -137 213 -297 118 -161 221 -304 231 -319 l17 -26 122
50 c159 65 352 162 505 254 l122 74 123 -74 c137 -82 291 -161 445 -227 l103
-44 -55 -3 c-33 -2 -99 7 -168 23 -213 49 -263 56 -383 57 -153 2 -240 -16
-460 -95 -160 -57 -175 -60 -262 -60 l-91 0 -6 -29 c-3 -15 -24 -48 -47 -73
-23 -25 -40 -47 -38 -50 16 -15 135 -35 204 -34 l80 2 7 -119 c3 -65 14 -145
22 -177 46 -168 145 -271 302 -312 98 -26 341 -18 452 14 82 24 154 86 197
170 31 61 65 222 77 365 l11 141 75 -4 c42 -2 100 2 130 9 49 11 53 14 47 33
-16 47 -17 97 -3 124 8 16 112 162 231 325 119 163 217 299 217 302 0 3 -25
50 -56 104 -93 159 -188 402 -209 529 -4 24 -12 46 -18 50 -6 4 -179 33 -385
64 -244 38 -382 63 -398 74 -55 36 -64 67 -64 223 0 158 10 196 57 228 18 11
149 35 407 75 209 33 383 62 386 67 4 4 13 34 20 67 33 156 118 368 210 521
29 46 50 91 47 98 -3 7 -105 149 -227 315 -288 392 -283 366 -97 549 102 100
105 102 151 102 26 0 57 -5 69 -12 12 -6 156 -110 319 -230 163 -120 300 -218
302 -218 3 0 35 18 71 40 151 93 331 168 511 215 54 14 99 27 101 28 1 2 30
176 63 386 36 230 65 390 74 403 36 52 60 58 225 58 170 0 204 -10 230 -67 8
-16 39 -196 71 -401 32 -206 60 -376 62 -378 3 -2 48 -15 102 -29 182 -47 370
-127 512 -216 33 -22 64 -39 67 -39 4 0 141 98 305 219 164 120 308 224 320
230 27 14 87 14 115 0 12 -6 52 -41 89 -77 67 -65 67 -66 88 -47 29 26 100
128 137 195 76 141 100 282 69 410 -38 156 -133 271 -367 442 -138 100 -234
189 -769 713 -650 636 -1155 1014 -1735 1300 -553 273 -1163 437 -1810 486
-193 15 -708 15 -895 0 -1042 -82 -1811 -402 -2540 -1057 -147 -132 -425 -412
-712 -719 -377 -403 -588 -599 -839 -775 -193 -136 -311 -276 -353 -419 -46
-158 11 -342 162 -518 24 -29 41 -53 36 -53 -4 0 -40 19 -78 42 -252 148 -447
318 -504 439 -63 132 -40 218 93 359 167 175 265 255 443 359 255 149 467 314
593 462 614 715 898 995 1339 1321 591 437 1249 718 1956 837 324 54 356 56
1044 56 683 0 837 -8 1136 -55 547 -87 969 -287 1524 -723 225 -177 419 -349
791 -704 252 -239 367 -357 592 -605 197 -217 409 -401 692 -602 222 -157 267
-196 318 -272 93 -141 118 -299 78 -484 -39 -176 -127 -306 -295 -435 -42 -32
-76 -61 -76 -64 1 -3 7 -17 15 -31 8 -14 14 -41 15 -61 0 -45 -19 -74 -272
-418 l-194 -264 55 -91 c89 -147 179 -369 212 -522 6 -33 15 -62 19 -66 3 -5
178 -35 389 -67 l384 -59 36 -36 36 -36 3 -158 c2 -142 1 -160 -17 -189 -11
-18 -31 -39 -45 -48 -16 -11 -157 -37 -406 -75 -210 -32 -383 -60 -384 -62 -1
-2 -10 -39 -20 -83 -39 -169 -135 -399 -229 -547 l-34 -53 209 -285 c116 -157
214 -286 219 -288 13 -5 168 79 278 151 251 165 436 346 587 572 123 186 211
403 250 620 24 136 25 413 1 545 -86 474 -363 879 -809 1180 -65 45 -66 46
-73 100 -9 76 -22 130 -57 239 l-30 93 50 44 c64 56 142 154 174 219 60 119
96 359 68 452 -5 18 -15 50 -21 71 -35 118 -118 230 -235 314 -43 32 -133 97
-199 144 -298 215 -496 397 -810 742 -154 169 -606 607 -855 828 -447 397
-794 642 -1143 809 -248 118 -462 185 -757 234 -140 24 -218 44 -385 100 -115
38 -280 88 -365 110 -151 39 -451 104 -455 99 -1 -2 -7 -38 -13 -81 -5 -43
-12 -80 -14 -83 -2 -2 -100 35 -216 81 -117 47 -222 85 -234 84 -13 0 -90 -12
-173 -25z m-190 -1029 c92 -45 138 -133 134 -259 l-2 -70 80 -65 c45 -36 129
-106 187 -154 96 -79 312 -227 333 -227 5 0 81 41 168 91 88 50 216 119 285
154 69 34 138 75 153 91 32 31 57 82 82 164 62 202 136 280 265 280 73 -1 170
-72 186 -136 9 -34 -1 -104 -24 -186 -11 -37 -17 -69 -15 -72 3 -2 17 0 33 4
62 18 168 -27 233 -99 61 -68 67 -134 19 -228 -42 -80 -137 -133 -241 -133
-48 0 -172 29 -208 48 -18 10 -54 -3 -249 -89 -267 -117 -314 -140 -314 -150
0 -5 51 -42 114 -83 63 -41 150 -102 193 -136 128 -102 136 -104 358 -102 152
2 200 -1 241 -14 138 -43 185 -165 101 -261 -46 -52 -97 -71 -227 -83 -63 -6
-116 -13 -119 -15 -2 -3 4 -14 14 -25 43 -48 8 -189 -63 -251 -52 -46 -92 -59
-176 -59 -189 0 -293 106 -284 291 l3 72 -185 157 c-183 155 -355 280 -385
280 -8 0 -81 -36 -163 -81 -81 -44 -211 -111 -289 -149 -204 -101 -213 -110
-273 -293 -33 -103 -69 -159 -133 -211 -31 -25 -49 -31 -102 -34 -86 -6 -145
22 -186 86 -36 57 -36 89 -4 207 14 49 25 91 25 92 0 1 -24 1 -53 0 -69 -1
-150 37 -205 97 -72 78 -75 159 -12 251 78 114 215 142 395 80 l71 -25 109 46
c341 142 445 188 445 198 0 2 -51 37 -112 76 -62 40 -154 103 -203 140 -149
111 -130 105 -360 102 -216 -2 -265 5 -330 49 -45 31 -65 68 -65 121 0 99 84
171 213 182 177 16 185 19 150 58 -25 28 -20 109 12 173 46 96 129 138 253
131 53 -3 89 -12 127 -31z m-2930 -1910 c165 -43 329 -165 505 -375 l40 -47
-142 -162 -141 -162 -29 28 c-44 42 -142 192 -183 280 -59 129 -58 128 -92
131 -38 4 -58 -25 -50 -68 9 -40 79 -185 126 -258 23 -34 41 -65 41 -67 0 -3
-24 -5 -53 -5 -29 0 -107 -7 -172 -15 -66 -8 -123 -15 -127 -15 -4 0 -15 -11
-24 -25 -15 -23 -15 -27 1 -51 l17 -27 102 9 c136 12 295 10 329 -4 l28 -12
-142 -161 c-78 -88 -148 -163 -157 -166 -10 -4 -38 18 -86 68 -273 285 -413
576 -378 779 30 168 132 281 295 325 70 19 219 19 292 0z m3875 -10 c7 -9 22
-75 34 -147 l21 -132 50 -12 c27 -7 81 -29 119 -48 l70 -34 107 79 c59 43 116
79 127 79 20 0 102 -81 102 -101 0 -7 -36 -62 -81 -122 l-81 -110 35 -71 c20
-39 41 -92 47 -118 14 -54 7 -51 160 -74 67 -9 122 -23 133 -32 21 -18 24
-109 5 -135 -9 -12 -52 -23 -149 -38 l-136 -21 -13 -50 c-7 -28 -28 -81 -47
-119 l-35 -69 76 -104 c42 -57 79 -112 82 -121 9 -22 -72 -105 -102 -105 -11
0 -67 34 -123 75 -56 41 -105 75 -109 75 -5 0 -39 -15 -76 -34 -38 -19 -90
-40 -116 -46 l-47 -11 -19 -130 c-10 -72 -24 -138 -30 -147 -18 -24 -130 -24
-148 0 -6 9 -20 75 -30 147 l-19 130 -47 11 c-26 6 -78 27 -116 46 -37 19 -71
34 -76 34 -4 0 -53 -34 -109 -75 -56 -41 -112 -75 -123 -75 -30 0 -111 83
-102 105 3 9 40 64 82 121 l76 104 -35 69 c-19 38 -40 91 -47 119 l-13 50
-136 21 c-97 15 -140 26 -148 38 -20 26 -17 117 5 135 10 9 65 23 132 32 153
23 146 20 160 74 6 26 27 79 47 118 l35 71 -81 110 c-45 60 -81 115 -81 122 0
20 82 101 102 101 11 0 69 -36 128 -80 l108 -79 68 35 c38 19 92 41 119 48
l50 12 21 132 c12 72 27 138 34 147 8 10 31 15 70 15 39 0 62 -5 70 -15z
m3985 -93 c120 -57 200 -163 225 -300 26 -146 -43 -363 -183 -572 -66 -99
-137 -191 -151 -195 -6 -3 -46 3 -89 13 -76 17 -80 19 -192 117 -102 89 -113
101 -98 113 35 25 93 34 268 38 152 4 182 7 193 21 16 22 15 35 -2 59 -12 15
-30 20 -100 24 -48 3 -132 2 -189 -1 -56 -3 -103 -5 -105 -3 -2 1 14 35 36 76
43 77 102 235 102 271 0 28 -28 57 -55 57 -30 0 -48 -25 -69 -94 -28 -92 -81
-203 -139 -288 -28 -43 -54 -78 -57 -78 -3 0 -57 46 -120 103 -64 56 -137 121
-164 144 l-48 42 91 115 c165 207 287 303 451 353 64 20 93 23 200 20 117 -2
129 -5 195 -35z m-3801 -4757 c38 -8 71 -17 74 -20 10 -10 -17 -308 -33 -370
-36 -138 -75 -176 -199 -190 l-59 -7 7 59 c3 32 -1 132 -9 223 -8 91 -18 200
-22 243 l-6 77 89 0 c49 0 120 -7 158 -15z m-351 -80 c2 -38 12 -141 22 -228
13 -114 15 -175 9 -220 l-9 -62 -40 3 c-184 14 -255 127 -255 408 l0 101 98
31 c150 48 157 50 163 43 4 -3 9 -37 12 -76z"/>
<path d="M2948 5062 c-103 -75 -188 -140 -188 -143 0 -7 180 -52 330 -83 63
-13 167 -39 230 -59 142 -43 269 -65 423 -74 111 -6 117 -5 117 13 0 28 -28
192 -34 202 -3 5 -24 12 -47 16 -61 10 -252 73 -349 116 -47 21 -129 63 -182
94 -54 31 -101 56 -105 56 -5 -1 -92 -63 -195 -138z"/>
<path d="M5140 5148 c-144 -87 -366 -176 -516 -209 -33 -6 -63 -15 -67 -19 -4
-4 -12 -35 -17 -71 -6 -35 -13 -75 -16 -88 l-5 -24 108 7 c145 9 414 42 598
72 199 33 398 74 408 84 9 8 -371 293 -396 297 -6 1 -50 -21 -97 -49z"/>
<path d="M8477 5054 c-109 -81 -195 -150 -190 -154 10 -10 209 -51 408 -84
184 -30 453 -63 598 -72 l108 -7 -5 24 c-3 13 -10 53 -16 88 -5 36 -13 67 -17
71 -4 4 -34 13 -67 19 -149 32 -362 118 -513 207 -51 30 -96 54 -100 54 -4 0
-97 -66 -206 -146z"/>
<path d="M10670 5143 c-52 -30 -133 -72 -180 -93 -98 -43 -288 -106 -350 -116
-49 -8 -52 -14 -69 -134 -7 -47 -15 -94 -18 -104 -5 -18 0 -19 118 -13 203 11
358 43 554 117 55 20 118 40 140 44 72 12 295 69 295 75 -1 9 -376 281 -387
280 -4 0 -51 -25 -103 -56z"/>
<path d="M2210 4920 c0 -8 -7 -127 -15 -265 -18 -311 -33 -683 -40 -1015 -4
-140 -10 -264 -15 -275 -5 -11 -13 -211 -18 -445 -7 -327 -6 -494 5 -725 16
-359 29 -1010 32 -1642 1 -300 5 -472 12 -493 23 -65 -167 -60 2437 -60 l2369
0 6 93 c4 50 4 372 1 714 l-6 623 68 -3 c38 -1 86 2 107 6 30 6 37 5 37 -8 0
-8 7 -15 16 -15 10 0 14 6 11 14 -4 10 7 17 37 25 23 6 59 22 80 36 36 24 37
24 22 3 -30 -42 -20 -72 40 -127 50 -46 66 -56 78 -48 2 1 12 -6 23 -15 68
-62 204 -76 319 -33 48 18 63 21 54 10 -19 -23 -3 -31 20 -10 13 12 17 21 10
25 -7 4 -2 13 12 22 18 12 38 13 93 7 39 -4 77 -6 86 -3 9 3 32 -4 50 -15 53
-30 135 -45 249 -45 l105 -1 75 44 c76 44 150 106 150 126 0 13 -24 33 -69 58
l-32 19 -56 -37 c-48 -32 -62 -36 -96 -32 -22 3 -48 14 -58 24 -18 18 -15 20
102 67 l120 49 165 -7 c138 -6 164 -5 164 7 0 11 -28 15 -136 21 -74 3 -140 4
-147 1 -7 -4 0 3 16 15 15 12 27 31 27 45 0 32 -57 113 -105 150 -39 29 -40
31 -26 56 16 29 8 64 -13 56 -29 -11 -36 17 -19 71 9 28 14 55 10 58 -4 4 -25
0 -47 -9 -36 -14 -40 -14 -40 1 0 8 7 23 16 33 13 15 14 24 4 53 -13 40 -29
56 -62 59 -13 2 -37 10 -55 20 -18 9 -40 17 -51 17 -10 0 -23 5 -29 11 -7 7
-15 5 -27 -6 -19 -19 -46 -13 -46 10 0 17 -22 20 -48 6 -9 -5 -25 -12 -34 -15
-22 -7 -24 -36 -3 -36 8 0 15 -4 15 -9 0 -5 -8 -7 -17 -5 -10 3 -43 -11 -73
-29 l-55 -33 -3 -56 c-4 -69 -24 -80 -80 -41 -20 13 -49 27 -64 30 -16 3 -28
12 -28 20 0 11 -9 12 -37 8 -53 -9 -65 -14 -59 -23 2 -4 -31 -20 -74 -35 -50
-18 -94 -42 -122 -66 l-44 -39 -23 33 c-44 65 -163 122 -230 110 -14 -3 -8 1
15 9 22 8 55 21 73 31 24 12 36 14 44 6 16 -16 47 -13 53 4 4 8 0 25 -8 38
-11 16 -13 28 -5 45 8 16 7 39 0 75 -6 29 -8 57 -4 62 12 17 12 67 -1 82 -9
11 -8 18 5 31 11 10 17 12 17 4 0 -27 17 -10 18 18 0 21 -5 31 -20 36 -11 3
-23 2 -27 -2 -20 -28 -66 15 -50 47 11 22 -9 42 -26 26 -10 -9 -10 -15 -1 -26
9 -12 8 -12 -12 0 -12 8 -20 20 -17 26 13 35 -30 58 -54 29 -6 -7 -34 -16 -61
-20 -28 -4 -70 -15 -95 -26 -30 -13 -56 -17 -77 -13 l-31 6 6 -41 c3 -23 2
-44 -2 -47 -10 -6 -21 541 -21 1058 l0 417 -97 0 c-215 0 -925 -21 -1198 -35
-1018 -52 -1902 -156 -2680 -315 -173 -35 -517 -118 -625 -150 -19 -5 -37 -10
-39 -10 -9 0 18 819 39 1175 l10 170 -85 85 c-47 47 -85 78 -85 70z m3830
-2289 c0 -13 -27 -21 -68 -21 -35 1 -36 2 -18 15 21 16 86 21 86 6z m-165 -21
c3 -5 0 -10 -7 -10 -7 0 -30 -3 -50 -6 -24 -4 -38 -3 -38 4 0 18 85 29 95 12z
m1405 -24 c0 -3 -4 -8 -10 -11 -5 -3 -10 -1 -10 4 0 6 5 11 10 11 6 0 10 -2
10 -4z m-20 -32 c0 -3 -13 -17 -30 -31 -49 -41 -39 -108 21 -138 32 -17 62
-13 92 13 13 12 17 12 17 2 0 -8 -33 -44 -72 -82 -71 -66 -74 -67 -108 -58
-19 6 -49 10 -66 10 -18 0 -42 9 -55 20 l-24 19 26 1 c14 0 38 11 54 25 25 24
29 25 51 11 28 -19 50 -12 58 17 11 43 -51 77 -73 40 -9 -16 -10 -15 -11 5 0
31 -43 72 -75 72 -84 0 70 78 158 79 20 1 37 -2 37 -5z m80 -51 c25 -32 20
-69 -12 -95 -44 -38 -111 -7 -111 50 0 70 80 99 123 45z m-256 -44 c52 -24 50
-99 -3 -125 -45 -23 -101 18 -101 72 0 19 45 64 64 64 8 0 26 -5 40 -11z m341
1 c-3 -5 -10 -10 -16 -10 -5 0 -9 5 -9 10 0 6 7 10 16 10 8 0 12 -4 9 -10z
m-810 -40 c3 -6 -1 -7 -9 -4 -18 7 -21 14 -7 14 6 0 13 -4 16 -10z m142 -35
c27 -8 58 -24 68 -35 18 -19 18 -20 -4 -20 -26 0 -81 -51 -81 -75 0 -15 -1
-15 -16 -1 -11 12 -20 13 -34 6 -26 -14 -32 -25 -24 -54 8 -33 33 -41 58 -17
21 19 21 19 49 -5 15 -13 38 -24 50 -24 33 0 8 -16 -52 -34 -30 -9 -62 -23
-72 -32 -17 -15 -23 -11 -99 65 -44 45 -80 83 -80 86 0 2 16 -5 35 -16 58 -35
125 4 125 72 0 31 -6 43 -37 68 l-38 31 51 0 c28 0 73 -7 101 -15z m437 -6
c-27 -11 -34 -10 -34 0 0 11 31 20 44 13 5 -3 1 -9 -10 -13z m190 -40 c-14
-16 -15 -22 -5 -28 17 -11 31 -78 24 -113 -7 -38 -72 -94 -125 -108 -59 -16
-124 -7 -154 20 -21 20 -64 114 -64 140 0 9 60 6 117 -6 19 -4 20 -7 10 -39
-13 -44 0 -61 38 -51 25 6 27 10 23 58 l-3 52 75 63 c55 46 76 59 78 47 2 -8
-4 -24 -14 -35z m-735 5 c27 -35 26 -59 -4 -89 -45 -46 -118 -19 -118 43 0 69
80 99 122 46z m234 -56 c24 -28 21 -65 -8 -93 -30 -30 -54 -31 -89 -4 -44 35
-31 102 24 122 23 8 53 -2 73 -25z m137 22 c0 -5 -4 -10 -10 -10 -5 0 -10 5
-10 10 0 6 5 10 10 10 6 0 10 -4 10 -10z m18 -53 c2 -12 -1 -15 -12 -11 -19 7
-22 38 -3 32 6 -3 13 -12 15 -21z m-1060 -2 c24 -3 60 -12 79 -20 l35 -15 -23
-39 -22 -40 -36 16 c-21 9 -66 16 -107 16 -59 0 -82 -5 -127 -27 -142 -69
-211 -235 -158 -377 27 -72 89 -143 154 -176 135 -68 308 -21 387 104 25 39
30 57 30 110 0 35 -2 63 -4 63 -5 0 -214 -49 -237 -56 -12 -3 -19 6 -27 38 -6
23 -10 43 -9 43 1 1 74 19 162 40 88 21 165 40 171 42 7 2 18 -27 28 -74 46
-216 -79 -385 -312 -424 -217 -36 -414 108 -454 331 -26 150 62 328 199 403
50 26 173 57 208 52 11 -2 40 -6 63 -10z m1022 -31 c0 -8 5 -14 10 -14 6 0 10
4 10 10 0 5 6 7 13 5 20 -8 46 -90 34 -110 -13 -23 2 -36 48 -39 57 -5 62 -26
12 -54 -23 -13 -65 -44 -94 -68 -34 -29 -53 -40 -53 -31 0 9 17 26 37 38 20
13 31 25 24 27 -6 2 -23 -3 -36 -12 -26 -17 -34 -9 -12 13 10 11 10 14 0 18
-10 3 -13 38 -13 124 0 78 4 118 10 114 6 -3 10 -13 10 -21z m-271 0 c2 -2 2
-6 0 -9 -8 -7 -49 7 -49 17 0 8 38 2 49 -8z m-219 -9 c7 -8 17 -15 23 -15 13
0 137 -131 132 -139 -2 -4 3 -21 10 -38 12 -29 17 -32 37 -24 19 7 22 15 20
42 -1 18 -8 36 -14 40 -6 4 14 15 45 25 31 10 59 15 62 12 10 -10 -23 -120
-43 -148 -48 -65 -177 -62 -252 7 -21 19 -41 47 -45 63 -7 34 12 113 25 105
16 -10 11 5 -10 32 -31 40 -22 76 10 38z m706 -10 c-9 -9 -16 -13 -16 -8 0 12
22 34 28 28 2 -2 -3 -11 -12 -20z m-511 -5 c3 -5 1 -10 -4 -10 -6 0 -11 5 -11
10 0 6 2 10 4 10 3 0 8 -4 11 -10z m220 -9 c3 -5 1 -12 -5 -16 -5 -3 -10 1
-10 9 0 18 6 21 15 7z m1445 -4 c18 -9 25 -21 26 -45 2 -35 27 -80 50 -89 21
-8 17 -41 -6 -53 -11 -6 -20 -17 -20 -25 0 -7 -17 -19 -37 -26 -37 -13 -44
-14 -70 -17 -7 -1 -13 -6 -13 -11 0 -5 10 -7 23 -5 l22 5 -22 -12 c-36 -19
-27 -24 39 -23 41 0 80 8 112 22 26 12 52 19 57 16 21 -13 9 -66 -22 -95 l-31
-29 -18 22 -18 22 -21 -42 c-20 -40 -24 -42 -64 -42 -96 0 -170 47 -204 128
-19 46 -22 161 -3 172 11 7 8 11 -13 21 -29 13 -31 36 -4 31 20 -3 65 19 103
51 44 37 92 45 134 24z m-160 -12 c0 -8 -7 -15 -15 -15 -16 0 -20 12 -8 23 11
12 23 8 23 -8z m-983 -1 c-3 -3 -12 -4 -19 -1 -8 3 -5 6 6 6 11 1 17 -2 13 -5z
m1256 -58 c13 -40 -9 -62 -40 -41 -27 19 -41 74 -22 86 19 11 51 -12 62 -45z
m-1069 8 c4 -11 1 -14 -11 -12 -9 2 -18 9 -21 16 -6 18 25 15 32 -4z m-524 -4
c0 -5 -9 -14 -20 -20 -16 -8 -20 -8 -20 4 0 13 13 23 33 25 4 1 7 -3 7 -9z
m1215 -40 c16 -18 18 -51 23 -375 l5 -355 -47 0 -46 0 0 375 0 375 23 0 c13 0
32 -9 42 -20z m-1395 -17 c0 -5 -4 -15 -10 -23 -11 -18 -25 -7 -17 15 6 15 27
21 27 8z m500 -23 c0 -11 -2 -20 -5 -20 -2 0 -9 9 -15 20 -9 16 -8 20 5 20 8
0 15 -9 15 -20z m80 -14 c0 -2 -15 -6 -34 -8 -19 -2 -32 0 -30 4 5 8 64 12 64
4z m-102 -21 c-2 -1 -16 -5 -33 -9 l-30 -6 25 14 c14 8 28 12 33 9 5 -3 7 -6
5 -8z m149 9 c-3 -3 -12 -4 -19 -1 -8 3 -5 6 6 6 11 1 17 -2 13 -5z m1200 -30
c-11 -36 -28 -48 -94 -68 -20 -6 -21 -5 -11 32 8 32 16 41 51 54 64 25 67 24
54 -18z m-1127 -6 c37 -29 91 -98 77 -98 -3 0 -15 16 -28 36 -12 20 -43 49
-68 65 -24 16 -40 29 -34 29 6 0 30 -15 53 -32z m-153 16 c-3 -3 -12 -4 -19
-1 -8 3 -5 6 6 6 11 1 17 -2 13 -5z m560 -25 c24 -12 48 -30 54 -40 12 -23 39
-25 39 -3 0 14 7 15 42 10 23 -4 43 -8 45 -9 1 -2 -20 -113 -48 -247 -56 -277
-79 -337 -145 -383 -85 -59 -226 -43 -304 35 -33 34 -70 103 -58 112 1 2 20 6
41 10 33 6 38 4 46 -16 20 -50 92 -98 148 -98 64 0 128 62 147 143 10 41 -1
49 -37 31 -39 -21 -121 -21 -167 -2 -46 20 -98 72 -121 123 -25 54 -25 156 0
210 55 122 203 180 318 124z m-1318 -15 c-14 -18 -24 -11 -15 11 3 9 11 13 16
10 8 -5 7 -11 -1 -21z m796 -8 c82 -38 133 -110 142 -202 14 -129 -58 -233
-185 -270 -70 -21 -136 -11 -204 29 -103 62 -147 207 -97 317 27 60 64 98 124
126 68 32 152 32 220 0z m89 -24 c19 -17 43 -46 52 -63 13 -25 18 -29 26 -18
8 11 9 10 4 -4 -3 -10 -6 -24 -6 -30 -1 -7 -12 9 -25 34 -13 26 -46 66 -72 89
-26 24 -41 39 -31 34 9 -5 32 -24 52 -42z m-1923 28 c25 -14 24 -30 -1 -30
-36 0 -70 -44 -70 -89 0 -32 6 -44 31 -65 17 -14 42 -26 55 -26 19 0 29 -8 41
-37 8 -21 30 -59 49 -84 19 -26 34 -51 34 -56 0 -17 -55 -62 -103 -83 -131
-58 -227 -23 -258 94 -6 22 -17 51 -25 64 -14 21 -13 22 21 22 36 0 85 35 85
61 0 8 7 6 18 -4 22 -20 43 -22 60 -5 19 19 14 55 -10 72 -19 14 -25 14 -44 1
-21 -13 -23 -13 -29 5 -14 45 -70 60 -129 35 -17 -8 -17 -6 -2 23 19 37 73 80
123 98 46 16 127 18 154 4z m19 -69 c0 -17 -5 -33 -12 -37 -8 -5 -7 -10 4 -18
9 -7 18 -25 20 -41 3 -27 0 -30 -22 -27 -30 3 -70 45 -70 73 0 30 18 59 43 69
34 14 37 12 37 -19z m1230 15 c0 -8 -4 -18 -10 -21 -5 -3 -10 3 -10 14 0 12 5
21 10 21 6 0 10 -6 10 -14z m-1516 -11 c-7 -16 -24 -21 -24 -6 0 8 7 13 27 20
1 1 0 -6 -3 -14z m3386 7 c0 -5 -7 -17 -16 -28 -8 -10 -14 -14 -11 -9 2 6 7
18 10 28 7 17 17 23 17 9z m-3311 -77 c72 -37 46 -139 -34 -139 -83 0 -104
102 -30 142 26 15 31 15 64 -3z m3177 -32 c-11 -11 -17 4 -9 23 7 18 8 18 11
1 2 -10 1 -21 -2 -24z m-3056 -23 c0 -5 -4 -10 -9 -10 -5 0 -16 -3 -25 -6 -9
-3 -16 -1 -16 4 0 9 16 17 43 21 4 0 7 -3 7 -9z m3054 -103 c15 -11 12 -15
-33 -34 -53 -22 -57 -20 -41 21 11 29 44 35 74 13z m-3256 -23 c28 -20 28 -34
0 -27 -30 8 -49 23 -42 34 7 13 16 11 42 -7z m2268 -12 c-18 -16 -18 -16 -6 6
6 13 14 21 18 18 3 -4 -2 -14 -12 -24z m-1842 -118 c4 -9 4 -19 1 -22 -7 -8
-35 19 -29 29 8 14 21 11 28 -7z m2171 -51 c-20 -48 -28 -55 -48 -47 -18 6
-33 42 -22 52 4 4 23 12 43 18 20 7 38 12 40 13 1 1 -5 -16 -13 -36z m-2337
-30 c5 -18 -10 -16 -34 2 -18 15 -18 15 5 13 14 -2 26 -9 29 -15z"/>
<path d="M7020 2369 c0 -5 5 -7 10 -4 6 3 10 8 10 11 0 2 -4 4 -10 4 -5 0 -10
-5 -10 -11z"/>
<path d="M6630 2320 c0 -5 5 -10 10 -10 6 0 10 5 10 10 0 6 -4 10 -10 10 -5 0
-10 -4 -10 -10z"/>
<path d="M6850 2270 c0 -5 5 -10 10 -10 6 0 10 5 10 10 0 6 -4 10 -10 10 -5 0
-10 -4 -10 -10z"/>
<path d="M5521 1888 c1 -17 3 -18 6 -6 3 11 11 15 21 12 15 -5 15 -4 2 5 -23
16 -30 13 -29 -11z"/>
<path d="M5530 1850 c0 -5 5 -10 10 -10 6 0 10 5 10 10 0 6 -4 10 -10 10 -5 0
-10 -4 -10 -10z"/>
<path d="M6090 1570 c0 -5 5 -10 10 -10 6 0 10 5 10 10 0 6 -4 10 -10 10 -5 0
-10 -4 -10 -10z"/>
<path d="M6120 1570 c0 -5 5 -10 10 -10 6 0 10 5 10 10 0 6 -4 10 -10 10 -5 0
-10 -4 -10 -10z"/>
<path d="M8206 2119 c-28 -22 -34 -56 -15 -92 16 -30 28 -37 71 -37 28 0 42 6
58 27 26 33 20 68 -16 101 -31 28 -64 28 -98 1z m98 -21 c19 -27 21 -62 3 -76
-26 -22 -67 -25 -87 -7 -22 20 -27 74 -8 93 21 21 75 15 92 -10z"/>
<path d="M8270 2044 c0 -8 5 -12 10 -9 6 4 8 11 5 16 -9 14 -15 11 -15 -7z"/>
<path d="M8370 2055 c-11 -13 -11 -20 0 -40 17 -32 37 -32 52 0 19 42 -24 74
-52 40z m33 -26 c-6 -6 -17 -8 -24 -3 -9 5 -8 9 7 14 23 9 31 3 17 -11z"/>
<path d="M8450 2090 c0 -5 5 -10 10 -10 6 0 10 5 10 10 0 6 -4 10 -10 10 -5 0
-10 -4 -10 -10z"/>
<path d="M8050 2020 c0 -22 1 -23 24 -14 13 5 14 9 5 20 -16 20 -29 17 -29 -6z"/>
<path d="M8072 1501 c-14 -8 -6 -41 10 -41 6 0 8 6 5 14 -3 8 -1 16 6 19 7 2
7 6 1 10 -5 3 -16 2 -22 -2z"/>
<path d="M8475 1980 c-3 -5 -1 -18 4 -27 11 -20 12 -19 16 15 2 23 -9 30 -20
12z"/>
<path d="M7649 1887 c-47 -32 -79 -91 -79 -150 0 -143 159 -219 252 -119 60
64 73 134 38 209 -36 80 -138 109 -211 60z m158 -28 c45 -38 56 -130 24 -189
-15 -28 -24 -35 -47 -33 -37 3 -83 51 -94 97 -9 40 2 95 27 132 12 19 19 21
45 14 16 -5 37 -15 45 -21z"/>
<path d="M7503 1775 c0 -27 4 -30 26 -16 12 8 12 12 -2 25 -21 22 -24 20 -24
-9z"/>
<path d="M7893 1613 c-7 -3 -13 -12 -13 -21 0 -15 2 -15 17 1 18 18 16 27 -4
20z"/>
<path d="M7660 1313 c0 -14 19 -38 25 -32 8 8 -5 39 -16 39 -5 0 -9 -3 -9 -7z"/>
<path d="M7710 1310 c0 -5 5 -10 10 -10 6 0 10 5 10 10 0 6 -4 10 -10 10 -5 0
-10 -4 -10 -10z"/>
<path d="M7137 1876 c-71 -26 -107 -78 -107 -157 0 -124 135 -211 230 -147 74
50 103 145 66 217 -17 32 -81 91 -99 91 -7 0 -21 2 -32 5 -11 3 -37 -2 -58 -9z
m134 -52 c36 -34 54 -90 45 -138 -8 -44 -38 -60 -87 -46 -76 22 -120 103 -99
181 l11 41 50 -4 c37 -4 58 -12 80 -34z m-185 -19 c-9 -9 -16 -24 -17 -33 0
-11 -2 -13 -6 -4 -5 14 25 67 34 58 3 -3 -2 -12 -11 -21z m11 -67 c-3 -8 -6
-5 -6 6 -1 11 2 17 5 13 3 -3 4 -12 1 -19z m-40 -25 c-3 -10 -5 -4 -5 12 0 17
2 24 5 18 2 -7 2 -21 0 -30z m122 -80 c19 -13 30 -23 25 -23 -5 0 -19 7 -30
15 -12 8 -25 11 -30 7 -5 -4 -6 -3 -2 2 4 5 -4 22 -17 38 -14 16 -25 34 -25
40 0 6 10 -4 23 -23 12 -18 38 -44 56 -56z m-62 -29 c17 -14 16 -14 -4 -4 -13
6 -27 20 -33 33 -10 20 -10 21 4 4 8 -10 23 -25 33 -33z m138 -10 c-10 -8 -26
-13 -34 -13 -11 1 -10 3 3 6 14 4 15 7 6 13 -7 5 -1 8 16 8 26 0 27 -1 9 -14z"/>
<path d="M7320 1851 c0 -10 19 -25 25 -20 1 2 -3 10 -11 17 -8 7 -14 8 -14 3z"/>
<path d="M5220 1755 c0 -8 5 -15 10 -15 6 0 10 7 10 15 0 8 -4 15 -10 15 -5 0
-10 -7 -10 -15z"/>
<path d="M11565 4790 c-30 -33 -69 -50 -115 -50 l-41 0 5 -42 c8 -61 24 -631
32 -1125 l7 -423 90 -50 90 -50 -7 427 c-8 490 -25 1104 -34 1242 l-7 93 -20
-22z"/>
<path d="M11632 1370 c-7 -509 -12 -972 -11 -1030 l2 -105 8 110 c24 334 35
1291 20 1760 -4 136 -10 -72 -19 -735z"/>
<path d="M8580 2090 c-9 -16 -8 -20 5 -20 8 0 15 2 15 4 0 2 3 11 6 20 9 23
-13 20 -26 -4z"/>
<path d="M7760 2090 c0 -5 9 -10 20 -10 11 0 20 5 20 10 0 6 -9 10 -20 10 -11
0 -20 -4 -20 -10z"/>
<path d="M8595 2059 c-12 -19 5 -23 22 -6 16 16 16 17 1 17 -9 0 -20 -5 -23
-11z"/>
<path d="M7463 2043 c9 -9 19 -14 23 -11 10 10 -6 28 -24 28 -15 0 -15 -1 1
-17z"/>
<path d="M7410 2046 c0 -12 33 -36 48 -36 14 1 12 5 -7 20 -21 19 -41 26 -41
16z"/>
<path d="M8590 2010 c0 -5 9 -10 21 -10 11 0 17 5 14 10 -3 6 -13 10 -21 10
-8 0 -14 -4 -14 -10z"/>
<path d="M8710 1794 c0 -3 5 -15 11 -27 9 -20 9 -20 -11 2 -31 36 -37 17 -6
-23 14 -19 26 -39 26 -45 0 -6 4 -11 9 -11 13 0 12 60 -1 88 -10 20 -28 31
-28 16z"/>
<path d="M8770 1430 c0 -5 9 -10 20 -10 11 0 20 5 20 10 0 6 -9 10 -20 10 -11
0 -20 -4 -20 -10z"/>
<path d="M8580 1297 c-27 -17 -31 -22 -17 -25 20 -4 67 23 67 38 0 14 -10 11
-50 -13z"/>
<path d="M7061 1301 c-9 -6 -10 -11 -2 -15 13 -8 31 1 31 15 0 11 -11 11 -29
0z"/>
<path d="M11612 145 c0 -16 2 -22 5 -12 2 9 2 23 0 30 -3 6 -5 -1 -5 -18z"/>
</g>
</svg>
